<svg xmlns="http://www.w3.org/2000/svg" width="32" height="32" viewBox="0 0 32 32" role="img" aria-label="Calibre">
  <defs>
    <linearGradient id="g" x1="4" y1="28" x2="28" y2="4" gradientUnits="userSpaceOnUse">
      <stop offset="0" stop-color="#7B61FF"/>
      <stop offset="1" stop-color="#A78BFA"/>
    </linearGradient>
  </defs>
  <rect width="32" height="32" rx="7" fill="#0C0E1A"/>
  <path d="M8.5 8.5C8.5 7.67 9.17 7 10 7h11.5c.83 0 1.5.67 1.5 1.5V24a.5.5 0 0 1-.5.5H10c-.83 0-1.5-.67-1.5-1.5V8.5Z" fill="url(#g)"/>
  <rect x="8.5" y="7" width="2.4" height="17.5" rx="1" fill="#0C0E1A" fill-opacity="0.28"/>
  <rect x="13.2" y="11.3" width="7.2" height="1.6" rx="0.8" fill="#F1F5FF" fill-opacity="0.9"/>
  <rect x="13.2" y="14.8" width="7.2" height="1.6" rx="0.8" fill="#F1F5FF" fill-opacity="0.65"/>
  <rect x="13.2" y="18.3" width="4.6" height="1.6" rx="0.8" fill="#F1F5FF" fill-opacity="0.45"/>
</svg>
